#!OML:ASF H:\Terrain\Patient Classification 1\Walking\steve\steve.ASF
:FULLY-SPECIFIED
:DEGREES


228
root 8.41125 16.1086 14.4911 9.71716 -9.34879 -6.0533
lowerback -0.426568 5.88215 5.61939
upperback -3.56573 7.93199 -0.31038
thorax -2.65136 3.814 -3.52627
lowerneck -10.2068 -1.97594 -2.78046
upperneck 11.3655 -3.04153 6.109
head 5.2326 -1.19381 2.13308
rclavicle 2.07854e-014 -1.98785e-015
rhumerus -17.9926 9.9953 -82.4791
rradius 73.5029
rwrist -15.5699
rhand -23.3134 -32.3233
rfingers 7.12502
rthumb 3.14042 -62.2799
lclavicle 2.07854e-014 -1.98785e-015
lhumerus -67.003 15.7009 54.6729
lradius 3.46834
lwrist -10.7223
lhand -25.4854 -8.00096
lfingers 7.12502
lthumb 1.04277 21.9762
rfemur 12.7392 3.41454 25.9386
rtibia 19.7159
rfoot 10.8019 14.4714
rtoes 12.2732
lfemur -43.2523 2.67526 -14.5271
ltibia 28.5152
lfoot -6.12748 6.46551
ltoes -4.17697
229
root 8.4172 16.0836 14.7709 9.65966 -8.78961 -5.59569
lowerback -0.400245 5.65412 5.0624
upperback -3.60657 7.61788 -0.532644
thorax -2.77723 3.66463 -3.46142
lowerneck -10.4313 -2.14611 -2.87557
upperneck 11.2349 -3.30147 6.51203
head 5.25113 -1.2956 2.25304
rclavicle -1.54928e-014 -9.93923e-015
rhumerus -18.8017 9.24506 -83.0113
rradius 73.889
rwrist -16.357
rhand -23.3713 -33.3464
rfingers 7.12502
rthumb 3.08449 -63.3039
lclavicle -1.54928e-014 -9.93923e-015
lhumerus -66.8731 15.8386 54.4004
lradius 3.15457
lwrist -10.9439
lhand -25.559 -7.83559
lfingers 7.12502
lthumb 0.971676 22.1419
rfemur 11.5321 3.92665 25.734
rtibia 23.2885
rfoot 12.2929 11.8946
rtoes 10.6766
lfemur -43.6655 2.23153 -15.2109
ltibia 30.538
lfoot -5.47858 6.67258
ltoes -3.26519
230
root 8.42312 16.0719 15.0647 9.39569 -8.51765 -4.706
lowerback -0.574858 5.43237 4.04942
upperback -3.49906 7.28988 -0.783325
thorax -2.68471 3.52907 -3.14446
lowerneck -10.7444 -2.17547 -3.09043
upperneck 11.3179 -3.358 6.88957
head 5.34302 -1.2995 2.40077
rclavicle 9.5516e-014 -3.97569e-015
rhumerus -20.2052 8.59207 -83.4941
rradius 74.5782
rwrist -16.6831
rhand -22.8892 -33.6473
rfingers 7.12502
rthumb 3.55006 -63.5975
lclavicle 9.5516e-014 -3.97569e-015
lhumerus -66.9384 16.1627 54.0905
lradius 3.23566
lwrist -11.624
lhand -25.0501 -7.25853
lfingers 7.12502
lthumb 1.46314 22.7162
rfemur 10.0475 3.96906 24.7399
rtibia 27.4139
rfoot 14.7851 8.82387
rtoes 11.5196
lfemur -43.6108 2.33155 -16.6712
ltibia 32.408
lfoot -4.77297 5.82996
ltoes -4.84289
231
root 8.42597 16.0885 15.353 9.12097 -8.39193 -3.54336
lowerback -0.768123 5.24746 2.66966
upperback -3.33628 7.01095 -1.06745
thorax -2.55311 3.42623 -2.65524
lowerneck -11.1192 -2.13738 -3.0572
upperneck 11.5131 -3.31714 6.88731
head 5.46471 -1.26788 2.39633
rclavicle -1.11692e-014 -1.31198e-014
rhumerus -21.6617 8.13089 -83.8161
rradius 75.1388
rwrist -17.1075
rhand -22.7899 -32.8424
rfingers 7.12502
rthumb 3.646 -62.791
lclavicle -1.11692e-014 -1.31198e-014
lhumerus -66.7199 16.6451 53.9025
lradius 3.17547
lwrist -12.7858
lhand -24.4383 -6.74953
lfingers 7.12502
lthumb 2.05403 23.2203
rfemur 8.22331 4.03776 23.4244
rtibia 31.6129
rfoot 17.2028 6.45889
rtoes 6.76437
lfemur -43.4319 2.39908 -18.3296
ltibia 34.1749
lfoot -4.39156 4.3904
ltoes -2.04663
232
root 8.42554 16.1068 15.6151 8.97693 -8.35503 -2.83166
lowerback -0.500878 5.14609 1.69891
upperback -3.37658 6.86592 -1.26589
thorax -2.84007 3.36988 -2.35985
lowerneck -10.9419 -2.07163 -3.12648
upperneck 11.25 -3.22476 7.03899
head 5.35164 -1.2231 2.46312
rclavicle 3.70858e-014 3.57812e-015
rhumerus -22.9831 7.83516 -84.1324
rradius 75.3328
rwrist -17.8977
rhand -22.9806 -32.5893
rfingers 7.12502
rthumb 3.46182 -62.5409
lclavicle 3.70858e-014 3.57812e-015
lhumerus -66.5127 16.9937 53.7523
lradius 3.15113
lwrist -14.1422
lhand -24.5005 -7.0025
lfingers 7.12502
lthumb 1.99398 22.9679
rfemur 6.19915 4.477 22.6795
rtibia 35.6459
rfoot 19.6096 4.60817
rtoes 2.11988
lfemur -43.3121 2.38848 -19.3315
ltibia 35.8077
lfoot -4.42239 3.39889
ltoes 3.23149
233
root 8.43295 16.1182 15.8762 8.7506 -8.34648 -2.40031
lowerback -0.158863 5.05555 1.2425
upperback -3.37171 6.73738 -1.45256
thorax -3.06249 3.31135 -2.33469
lowerneck -10.4106 -1.99322 -3.35254
upperneck 10.4923 -3.11007 7.52915
head 5.03255 -1.16719 2.66311
rclavicle 4.83295e-015 9.54166e-015
rhumerus -24.1634 7.44608 -84.6417
rradius 75.1828
rwrist -18.4842
rhand -22.0182 -33.8545
rfingers 7.12502
rthumb 4.39121 -63.789
lclavicle 4.83295e-015 9.54166e-015
lhumerus -66.2991 17.3539 53.5144
lradius 3.38657
lwrist -15.4259
lhand -24.2539 -7.2516
lfingers 7.12502
lthumb 2.23213 22.7165
rfemur 4.51989 5.1137 22.2198
rtibia 39.5866
rfoot 21.7962 3.32453
rtoes 0.809421
lfemur -42.8599 2.23614 -19.9638
ltibia 37.1263
lfoot -5.06146 2.94086
ltoes 4.83983
234
root 8.44827 16.1234 16.1427 8.49109 -8.17678 -2.18059
lowerback -0.0300074 4.91149 1.21439
upperback -3.18594 6.542 -1.58362
thorax -2.93928 3.21556 -2.45076
lowerneck -10.4355 -1.92719 -3.25753
upperneck 10.0498 -3.01143 7.55591
head 4.89403 -1.12064 2.66129
rclavicle -3.24267e-014 -3.18055e-014
rhumerus -25.2779 7.14349 -85.2505
rradius 75.0392
rwrist -19.3614
rhand -20.7267 -37.3532
rfingers 7.12502
rthumb 5.63822 -67.2582
lclavicle -3.24267e-014 -3.18055e-014
lhumerus -65.6983 17.9884 53.3699
lradius 3.46441
lwrist -16.5081
lhand -23.5013 -7.45186
lfingers 7.12502
lthumb 2.95894 22.5074
rfemur 3.35152 5.81796 22.0432
rtibia 43.2918
rfoot 23.7265 0.464033
rtoes 6.68195
lfemur -42.2461 2.00108 -20.3959
ltibia 38.2355
lfoot -5.90245 2.42011
ltoes 4.23612
235
root 8.45879 16.1619 16.411 8.09263 -8.38151 -1.82067
lowerback 0.118533 4.87002 0.928225
upperback -2.86283 6.47967 -1.70608
thorax -2.70863 3.19484 -2.41283
lowerneck -11.2571 -1.86971 -2.70761
upperneck 10.2456 -2.93623 6.86805
head 5.07004 -1.08736 2.35813
rclavicle 9.93923e-015 -1.47101e-014
rhumerus -26.2516 7.01612 -85.7975
rradius 75.0177
rwrist -20.8118
rhand -23.8021 -34.9994
rfingers 7.12502
rthumb 2.66851 -64.9625
lclavicle 9.93923e-015 -1.47101e-014
lhumerus -64.7962 18.8336 53.3264
lradius 3.39679
lwrist -17.6707
lhand -22.9987 -7.72872
lfingers 7.12502
lthumb 3.44436 22.2232
rfemur 1.76557 6.11443 21.6535
rtibia 46.8639
rfoot 26.1686 -0.449605
rtoes 0.319447
lfemur -41.1121 2.21048 -21.056
ltibia 38.9951
lfoot -6.84243 1.58419
ltoes 4.2527
236
root 8.4588 16.2084 16.672 7.73799 -9.12653 -1.5148
lowerback 0.316063 4.99815 0.48181
upperback -2.63884 6.64142 -1.78693
thorax -2.62137 3.28666 -2.26015
lowerneck -11.2147 -2.01851 -2.97764
upperneck 10.0748 -3.07489 6.79237
head 5.01931 -1.17461 2.3674
rclavicle 3.06128e-014 -8.34896e-015
rhumerus -27.2856 6.63293 -86.222
rradius 74.7339
rwrist -21.1829
rhand -26.1834 -33.3862
rfingers 7.12502
rthumb 0.368609 -63.3656
lclavicle 3.06128e-014 -8.34896e-015
lhumerus -63.8768 19.705 53.2881
lradius 3.29169
lwrist -19.0734
lhand -22.4451 -7.66612
lfingers 7.12502
lthumb 3.97899 22.2765
rfemur -0.0524746 6.70702 21.2251
rtibia 50.327
rfoot 28.1721 -2.46705
rtoes -3.2974
lfemur -39.7656 2.9146 -21.632
ltibia 39.3986
lfoot -7.94334 0.980379
ltoes 4.63854
237
root 8.4681 16.2514 16.9355 7.57953 -9.52312 -1.26982
lowerback 0.367777 5.0138 0.244614
upperback -2.53798 6.65679 -1.84445
thorax -2.56566 3.29967 -2.18866
lowerneck -11.0149 -2.01738 -3.19824
upperneck 9.7415 -3.02501 6.81248
head 4.88358 -1.16645 2.41382
rclavicle -7.00716e-015 -3.97569e-015
rhumerus -28.4738 6.23898 -86.7009
rradius 74.0824
rwrist -20.714
rhand -31.9317 -29.9594
rfingers 7.12502
rthumb -5.1828 -59.876
lclavicle -7.00716e-015 -3.97569e-015
lhumerus -63.2529 20.5523 53.2792
lradius 3.56305
lwrist -20.5564
lhand -21.9907 -7.75554
lfingers 7.12502
lthumb 4.41777 22.1784
rfemur -2.06284 6.81711 20.8713
rtibia 53.7764
rfoot 29.0692 -3.79861
rtoes -7.33954
lfemur -38.5245 3.41126 -22.1889
ltibia 39.4153
lfoot -8.73827 0.669492
ltoes 4.0406
238
root 8.48743 16.2766 17.1963 7.2493 -9.43876 -0.732971
lowerback 0.552011 4.84272 -0.129689
upperback -2.40416 6.41843 -1.9344
thorax -2.57022 3.18749 -2.08124
lowerneck -11.1396 -1.86717 -3.28723
upperneck 9.80973 -2.80792 6.80218
head 4.91502 -1.06087 2.44158
rclavicle 3.35698e-014 2.26615e-014
rhumerus -29.6752 5.9405 -87.3096
rradius 73.1997
rwrist -20.8574
rhand -29.1395 -37.4953
rfingers 7.12502
rthumb -2.48641 -67.4605
lclavicle 3.35698e-014 2.26615e-014
lhumerus -62.7511 21.4891 53.315
lradius 4.14757
lwrist -22.0054
lhand -21.6561 -7.78512
lfingers 7.12502
lthumb 4.74084 22.1418
rfemur -3.75488 6.66418 20.2435
rtibia 57.1043
rfoot 27.9321 -8.13142
rtoes 1.11166
lfemur -37.042 3.45723 -23.0688
ltibia 39.1411
lfoot -9.29236 0.367035
ltoes 3.15532
239
root 8.49671 16.3024 17.4405 6.956 -9.61526 -0.266782
lowerback 1.02948 4.70796 -0.672766
upperback -2.49677 6.21589 -1.98151
thorax -2.99288 3.09348 -1.87912
lowerneck -11.1693 -1.66089 -3.17297
upperneck 10.2181 -2.55804 6.71336
head 5.03022 -0.933555 2.41593
rclavicle 6.63444e-014 -2.14687e-014
rhumerus -31.1194 5.71489 -88.0549
rradius 72.2512
rwrist -21.3267
rhand -27.1706 -38.8527
rfingers 7.12502
rthumb -0.584838 -68.8316
lclavicle 6.63444e-014 -2.14687e-014
lhumerus -62.3388 22.4516 53.1786
lradius 4.55061
lwrist -23.5148
lhand -21.1917 -7.87934
lfingers 7.12502
lthumb 5.18921 22.0371
rfemur -5.8033 7.06969 19.7127
rtibia 60.313
rfoot 25.5136 -10.923
rtoes 8.20765
lfemur -35.4709 3.57512 -23.7396
ltibia 38.5851
lfoot -10.0381 0.114036
ltoes 5.43395
